<?xml version="1.0" standalone="no"?>
<!DOCTYPE svg PUBLIC "-//W3C//DTD SVG 20010904//EN"
 "http://www.w3.org/TR/2001/REC-SVG-20010904/DTD/svg10.dtd">
<svg version="1.0" xmlns="http://www.w3.org/2000/svg"
 width="230" height="210" viewBox="0 0 1200.000000 1200.000000"
 preserveAspectRatio="xMidYMid meet">

<g transform="translate(10.000000,1200.000000) scale(0.100000,-0.100000)"
fill="#000000" stroke="none">
<path d="M9925 8443 c-381 -49 -1038 -347 -1796 -815 l-184 -113 -200 2 c-559
4 -3275 220 -7029 558 -275 25 -501 43 -503 41 -6 -6 80 -3961 86 -3967 3 -4
1720 83 3816 194 l3810 200 727 -401 c671 -371 738 -405 860 -446 320 -106
582 -129 753 -65 105 39 189 142 231 284 14 46 18 92 18 195 -1 155 -16 238
-75 412 -21 64 -39 119 -39 121 0 2 26 -2 58 -10 82 -21 272 -21 349 0 271 72
437 318 450 667 7 169 -25 298 -108 437 -45 73 -154 190 -224 238 -57 40 -68
55 -37 55 10 0 50 16 91 35 236 114 329 375 252 716 -75 331 -263 542 -538
603 -80 18 -283 21 -348 6 -22 -5 -41 -8 -42 -6 -2 2 10 32 26 67 78 175 96
389 55 687 -16 117 -37 172 -85 220 -75 76 -209 106 -374 85z m32 -429 c36
-22 55 -43 76 -84 25 -48 28 -63 24 -122 -9 -137 -113 -274 -264 -346 -73 -35
-84 -37 -174 -37 -89 0 -99 2 -145 30 -72 44 -107 116 -101 206 5 87 39 159
110 235 96 104 214 156 344 151 70 -3 89 -8 130 -33z m648 -1153 c134 -66 179
-189 115 -314 -66 -128 -215 -209 -390 -211 -119 -1 -180 18 -250 81 -133 120
-86 306 106 419 123 72 301 83 419 25z m-1582 5 c63 -31 124 -101 167 -191 35
-74 44 -84 80 -99 22 -9 46 -16 53 -16 8 0 40 -13 73 -29 191 -93 290 -368
224 -625 -39 -154 -110 -245 -240 -309 -77 -38 -88 -47 -112 -92 -14 -27 -27
-57 -27 -66 -2 -33 -72 -158 -112 -199 -120 -124 -295 -120 -411 9 -137 152
-165 394 -72 606 12 28 17 66 17 125 0 74 -5 102 -42 209 -32 94 -44 146 -48
211 -10 153 35 296 124 391 69 74 129 101 218 97 41 -2 86 -11 108 -22z m1504
-1237 c76 -26 131 -59 182 -110 54 -55 81 -108 88 -174 7 -70 -11 -119 -62
-170 -118 -118 -351 -120 -524 -4 -190 127 -203 349 -26 442 94 49 228 56 342
16z m-718 -978 c119 -37 227 -131 286 -247 27 -53 30 -68 30 -155 0 -88 -2
-99 -28 -136 -16 -23 -50 -52 -78 -68 -47 -25 -58 -27 -138 -23 -111 5 -196
45 -282 130 -91 92 -149 235 -133 327 28 155 170 226 343 172z"/>
</g>
</svg>
