<?xml version="1.0" standalone="no"?>
<!DOCTYPE svg PUBLIC "-//W3C//DTD SVG 20010904//EN"
 "http://www.w3.org/TR/2001/REC-SVG-20010904/DTD/svg10.dtd">
<svg version="1.0" xmlns="http://www.w3.org/2000/svg"
 width="230" height="210" viewBox="0 0 1200.000000 1200.000000"
 preserveAspectRatio="xMidYMid meet">

<g transform="translate(0.000000,1200.000000) scale(0.100000,-0.100000)"
fill="#000000" stroke="none">
<path d="M1858 8399 c-187 -25 -297 -122 -354 -314 -14 -46 -18 -92 -18 -195
1 -155 16 -238 75 -412 21 -64 39 -119 39 -121 0 -2 -26 2 -57 10 -83 21 -273
21 -350 0 -271 -72 -437 -318 -450 -667 -7 -169 25 -298 108 -437 45 -73 154
-190 224 -238 57 -40 68 -55 37 -55 -10 0 -50 -16 -91 -35 -236 -114 -329
-375 -252 -716 75 -331 263 -542 538 -603 80 -18 283 -21 348 -6 22 5 41 8 42
6 2 -2 -10 -32 -26 -67 -37 -84 -58 -170 -72 -299 -16 -156 11 -448 50 -533
126 -279 611 -206 1446 218 266 135 500 267 776 437 l184 113 200 -2 c559 -4
3275 -220 7029 -558 275 -25 501 -43 503 -41 6 6 -80 3961 -86 3967 -3 4
-1720 -83 -3816 -194 l-3810 -200 -727 401 c-671 371 -738 405 -861 447 -235
78 -478 115 -629 94z m416 -459 c161 -80 285 -280 260 -419 -15 -84 -80 -161
-151 -180 -168 -47 -384 68 -478 255 -27 53 -30 68 -30 155 0 85 3 99 25 133
14 21 48 51 75 67 47 28 55 30 140 27 78 -4 99 -8 159 -38z m-606 -1051 c286
-94 368 -388 141 -504 -157 -80 -383 -38 -518 96 -56 56 -82 109 -88 180 -18
193 218 309 465 228z m1517 -63 c61 -28 134 -107 170 -183 71 -149 71 -335 -1
-498 -12 -28 -17 -66 -17 -125 0 -74 5 -102 42 -209 67 -197 66 -348 -4 -499
-33 -72 -114 -155 -177 -182 -62 -27 -161 -25 -221 4 -63 31 -124 101 -167
191 -35 74 -44 84 -80 99 -22 9 -46 16 -53 16 -8 0 -40 13 -73 29 -191 93
-290 368 -224 625 39 154 110 245 240 309 77 38 88 47 112 92 14 28 27 57 27
66 2 33 72 158 112 199 86 88 211 115 314 66z m-1363 -1181 c74 -26 145 -95
164 -160 72 -251 -320 -479 -592 -345 -262 128 -145 446 191 520 56 13 181 5
237 -15z m705 -1101 c71 -43 106 -115 100 -205 -9 -139 -105 -267 -255 -342
-83 -41 -89 -42 -182 -42 -90 0 -100 2 -146 30 -72 44 -107 116 -101 207 6 90
44 166 122 244 100 101 205 146 332 141 70 -3 89 -8 130 -33z"/>
</g>
</svg>
