<svg width="70" height="40" viewBox="0 0 3600 2538" fill="none" xmlns="http://www.w3.org/2000/svg">
<path d="M684.2 102.9C682.4 104.1 673.6 116.8 667.4 127.2C628.5 192.7 598.8 294.7 584.1 413C561.6 593.7 570.7 812.7 611.3 1068.5L615.5 1095.5L609.6 1106.5C606.4 1112.5 599.7 1126 594.7 1136.5C536.5 1259.9 499.9 1397.7 492.4 1521.7C492 1528.9 491.3 1533 490.6 1533C490 1533 388.5 1527.4 265.1 1520.5C141.7 1513.5 40.6 1508.1 40.3 1508.4C39.7 1508.9 56.6 1662 57.4 1662.7C57.6 1663 157.1 1669.4 278.5 1677C399.8 1684.6 499.3 1690.9 499.5 1691.2C499.7 1691.4 501.1 1698.1 502.5 1706C512.1 1758.8 529.3 1814.1 551 1861.3C554.8 1869.4 557.5 1876.2 557.2 1876.4C556.8 1876.6 454.8 1905.9 330.5 1941.5C206.2 1977.2 104.4 2006.4 104.3 2006.4C104.1 2006.6 164 2178.3 164.5 2178.7C164.6 2178.9 268.1 2143 394.6 2098.9C521 2054.9 629.5 2017.1 635.7 2015L646.8 2011.1L655.6 2021.3C668.4 2036.2 709.3 2076.6 725.5 2090.5C785.8 2142.1 839 2177.3 926.5 2223.4C1147.6 2340 1359 2420.2 1540 2456.4C1589.7 2466.3 1627.9 2471.7 1686 2477.1C1702.5 2478.7 1857.9 2479.3 1888 2477.9C2076.5 2469.5 2305.2 2402.5 2560 2281C2603.1 2260.5 2676.4 2223.1 2711.5 2203.8C2775.7 2168.4 2830.2 2130.7 2881.5 2085.9C2897.4 2072.1 2933.2 2036.4 2945.9 2021.7C2951 2015.8 2955.6 2011 2956 2011C2956.4 2011 3064.7 2048.6 3196.6 2094.5C3328.5 2140.4 3436.8 2177.9 3437.3 2177.7C3438.7 2177.3 3498.2 2006.8 3497.3 2006C3496.8 2005.6 3394.7 1976.2 3270.3 1940.5L3044.1 1875.7L3046.5 1871C3068.8 1827 3091.7 1755.1 3100.7 1700.8L3102.4 1690L3106.5 1689.9C3108.7 1689.9 3208.4 1683.7 3328 1676.2L3545.5 1662.5L3554 1585.2C3558.8 1542.7 3562.4 1507.7 3562.1 1507.6C3561.8 1507.4 3463.2 1512.8 3343 1519.6C3222.8 1526.3 3121.4 1532 3117.5 1532.1L3110.5 1532.3L3110.3 1528.4C3107.4 1478.9 3101.9 1436.8 3091.9 1388.1C3073.2 1296.5 3041 1203.1 2999.4 1119.3L2986.9 1094.2L2990.9 1068.8C3010.5 946.6 3021.9 839.2 3028.2 718.5C3029.9 685.6 3029.9 555.7 3028.2 526.5C3019.4 377.4 2998 267.3 2960.4 177.7C2949.2 151.2 2930.6 117.3 2921 105.9L2917.5 101.7L2907 103.5C2828.7 116.4 2743.1 141.9 2675.2 172.6C2554.5 227.3 2454.6 305 2361.1 416.9C2342 439.8 2327.5 458.3 2293 504C2261.7 545.4 2251.5 558.3 2237.4 574.1C2216.5 597.4 2198.7 610.1 2181.7 613.6C2173.7 615.3 2167.9 614.9 2156 612C2116.1 602 2046.6 594.9 1959.5 592C1919.6 590.6 1660.6 591.3 1627.5 592.9C1542.9 596.9 1486.7 603 1446.6 612.4C1440.7 613.8 1433 615 1429.6 615C1409.5 615 1388.8 601.7 1362.7 572.2C1349 556.6 1342.8 548.8 1307 501.5C1275.2 459.6 1256.4 435.5 1239.6 415.5C1178.1 342.3 1116.1 285.7 1046.5 239.3C946.4 172.6 831.2 127.8 701.3 105.1C692.4 103.6 684.7 102.6 684.2 102.9Z" fill="black"/>
<path d="M1751.17 1052.7C1623.55 1065.73 1510.29 1144.07 1474.87 1243.8C1467.69 1263.85 1465.18 1279.05 1465.02 1302.27C1464.68 1332.34 1469.53 1346.04 1487.07 1364.08C1506.95 1384.46 1542.19 1393.98 1574.27 1387.47C1592.14 1383.96 1603.5 1378.45 1615.03 1368.09C1627.56 1356.56 1636.41 1342.53 1653.95 1306.45C1672.33 1268.86 1679.68 1257.33 1695.21 1242.13C1717.1 1220.75 1744.49 1210.23 1783.75 1208.39C1826.01 1206.38 1856.42 1214.23 1884.48 1234.11C1902.19 1246.64 1915.89 1268.03 1922.57 1293.08C1926.08 1306.78 1926.58 1338.69 1923.24 1351.55C1920.23 1364.08 1913.05 1379.45 1904.86 1391.81C1893.84 1407.85 1866.11 1435.41 1840.21 1456.12C1827.02 1466.65 1805.3 1483.86 1791.94 1494.71C1734.3 1540.49 1707.24 1573.56 1693.37 1614.82C1688.03 1630.69 1687.03 1635.54 1686.36 1653.58C1685.36 1677.47 1687.19 1687.16 1695.38 1705.37C1701.89 1719.73 1720.44 1739.44 1732.8 1745.46C1759.53 1758.15 1801.46 1756.82 1825.68 1742.28C1842.72 1732.09 1850.24 1720.4 1867.78 1677.3C1885.48 1633.53 1895.34 1622.67 1956.65 1578.74C2006.93 1542.82 2029.15 1525.12 2051.7 1503.07C2096.3 1459.13 2120.86 1418.2 2131.38 1369.93C2133.89 1358.9 2134.56 1348.71 2134.39 1323.99C2134.39 1288.74 2132.05 1271.87 2123.53 1244.3C2097.47 1159.27 2026.31 1097.8 1920.23 1068.4C1868.28 1054.03 1800.12 1047.68 1751.17 1052.7Z" fill="white"/>
<path d="M1760.36 1845.52C1716.59 1855.04 1686.53 1881.27 1671.49 1923.03C1667.65 1933.89 1667.15 1937.9 1666.98 1956.28C1666.98 1974.32 1667.65 1979 1671.32 1990.19C1692.21 2053 1759.53 2085.74 1819.5 2062.02C1851.41 2049.32 1875.63 2023.6 1886.65 1990.52C1889.99 1980.67 1890.66 1975.49 1890.66 1957.11C1890.66 1937.57 1890.16 1934.06 1885.82 1921.53C1870.12 1875.42 1826.35 1844.02 1778.91 1844.52C1770.55 1844.69 1762.2 1845.02 1760.36 1845.52Z" fill="white"/>
</svg>
